<?xml version="1.0" standalone="no"?>
<svg viewBox="0 0 200 200" xmlns="http://www.w3.org/2000/svg">
  <path fill="#FF0066" d="M40.9,-71.5C54.8,-62.9,69.1,-55.5,77.4,-43.8C85.7,-32.1,88.1,-16,83.8,-2.5C79.5,11.1,68.6,22.2,60.3,33.9C52,45.7,46.3,58,36.7,61.1C27.1,64.2,13.5,58.1,0.2,57.7C-13.1,57.3,-26.2,62.7,-38,60.9C-49.9,59,-60.5,50,-66.8,38.7C-73.2,27.4,-75.4,13.7,-74,0.8C-72.7,-12.1,-67.9,-24.3,-62.5,-37.4C-57.2,-50.5,-51.3,-64.5,-40.8,-75.1C-30.3,-85.7,-15.1,-92.8,-0.8,-91.5C13.5,-90.1,27,-80.2,40.9,-71.5Z" transform="translate(100 100)" />
</svg>
